<svg width="24" height="24" viewBox="0 0 24 24" fill="none" xmlns="http://www.w3.org/2000/svg">
<mask id="mask0_2001_153" style="mask-type:luminance" maskUnits="userSpaceOnUse" x="0" y="0" width="24" height="24">
<path d="M0 0H24V24H0V0Z" fill="white"/>
</mask>
<g mask="url(#mask0_2001_153)">
<path fill-rule="evenodd" clip-rule="evenodd" d="M3.19462 3.56215C3.04153 3.94833 2.96604 4.36089 2.97246 4.77625L3.18562 19.1477C3.1917 19.5629 3.27951 19.9729 3.44403 20.3542C3.60856 20.7355 3.84658 21.0806 4.1445 21.3699C4.44242 21.6592 4.79441 21.887 5.18037 22.0402C5.56632 22.1935 5.97868 22.2692 6.3939 22.2631L17.8903 22.0945C18.729 22.0815 19.5281 21.7361 20.1121 21.1342C20.6962 20.5322 21.0173 19.723 21.005 18.8844L20.7927 4.51257C20.787 4.0973 20.6995 3.68722 20.5352 3.30578C20.3709 2.92434 20.1331 2.57902 19.8353 2.28954C19.5374 2.00007 19.1855 1.77212 18.7996 1.61872C18.4136 1.46533 18.0012 1.38949 17.586 1.39555L6.08708 1.5661C5.46158 1.57537 4.85288 1.76997 4.33801 2.12528C3.82314 2.48059 3.42522 2.98063 3.19462 3.56215ZM6.74339 6.73137C6.74181 6.61811 6.76257 6.50565 6.80448 6.40042C6.84639 6.29519 6.90863 6.19925 6.98764 6.11808C7.06665 6.03692 7.16088 5.97212 7.26494 5.92739C7.36901 5.88267 7.48087 5.85889 7.59413 5.85742L16.2128 5.72924C16.326 5.72751 16.4385 5.7481 16.5438 5.78983C16.6491 5.83157 16.7451 5.89363 16.8264 5.97247C16.9077 6.05131 16.9726 6.1454 17.0176 6.24935C17.0625 6.3533 17.0865 6.46508 17.0883 6.57832C17.09 6.69155 17.0694 6.80402 17.0277 6.90929C16.9859 7.01457 16.9239 7.1106 16.845 7.19189C16.7662 7.27318 16.6721 7.33815 16.5681 7.38308C16.4642 7.42801 16.3524 7.45203 16.2392 7.45376L7.61864 7.58267C7.50534 7.58438 7.39281 7.56372 7.28749 7.52189C7.18217 7.48006 7.08614 7.41788 7.00488 7.33889C6.92362 7.25991 6.85873 7.16568 6.81393 7.0616C6.76912 6.95751 6.74491 6.84468 6.74339 6.73137ZM6.79936 10.4694C6.79586 10.2409 6.88324 10.0204 7.04228 9.85626C7.20132 9.69217 7.41901 9.59794 7.6475 9.59429L16.268 9.46538C16.4102 9.46261 16.5508 9.49507 16.6773 9.55988C16.8038 9.62468 16.9124 9.71981 16.9932 9.83676C17.074 9.95372 17.1246 10.0889 17.1404 10.2301C17.1563 10.3714 17.1369 10.5144 17.0841 10.6464C17.021 10.805 16.9125 10.9414 16.7721 11.0384C16.6317 11.1355 16.4658 11.1888 16.2951 11.1918L7.67351 11.3179C7.44511 11.3211 7.22477 11.2336 7.06086 11.0745C6.89696 10.9154 6.80291 10.6978 6.79936 10.4694ZM6.85495 14.2064C6.85172 13.978 6.93918 13.7576 7.09817 13.5936C7.25715 13.4296 7.47469 13.3353 7.70309 13.3314L13.4523 13.2456C13.6525 13.2415 13.8479 13.3071 14.005 13.4313C14.162 13.5555 14.2709 13.7305 14.313 13.9262C14.3551 14.122 14.3277 14.3263 14.2356 14.5041C14.1435 14.6818 13.9923 14.822 13.8081 14.9005C13.7041 14.9454 13.5923 14.9694 13.4791 14.9711L7.72947 15.0559C7.50093 15.059 7.2805 14.9713 7.11655 14.812C6.9526 14.6528 6.85852 14.435 6.85495 14.2064Z" fill="#9E9E9E"/>
</g>
</svg>
