<svg width="24" height="24" viewBox="0 0 24 24" fill="none" xmlns="http://www.w3.org/2000/svg">
<mask id="mask0_2001_185" style="mask-type:luminance" maskUnits="userSpaceOnUse" x="0" y="0" width="24" height="24">
<path d="M0 0H24V24H0V0Z" fill="white"/>
</mask>
<g mask="url(#mask0_2001_185)">
<path d="M20.3273 4.61189C18.7496 3.88964 17.0841 3.37728 15.3733 3.08789C15.1393 3.50689 14.9283 3.93789 14.7393 4.37789C12.9172 4.10335 11.0643 4.10335 9.24227 4.37789C9.05227 3.93789 8.84227 3.50689 8.60727 3.08789C6.8956 3.37985 5.22925 3.8935 3.65027 4.61589C0.515265 9.25389 -0.334735 13.7759 0.0902653 18.2359C1.92604 19.5923 3.98081 20.6239 6.16527 21.2859C6.65727 20.6239 7.09227 19.9219 7.46627 19.1869C6.75622 18.9216 6.07091 18.5944 5.41827 18.2089C5.58927 18.0839 5.75827 17.9559 5.92027 17.8309C7.82014 18.7244 9.89377 19.1877 11.9933 19.1877C14.0928 19.1877 16.1664 18.7244 18.0663 17.8309C18.2313 17.9649 18.3993 18.0939 18.5693 18.2089C17.9143 18.5949 17.2283 18.9229 16.5163 19.1889C16.8893 19.9229 17.3253 20.6249 17.8173 21.2849C20.0037 20.6257 22.0601 19.5946 23.8963 18.2369C24.3943 13.0669 23.0443 8.58489 20.3263 4.61189H20.3273ZM8.00527 15.4929C6.82127 15.4929 5.84227 14.4189 5.84227 13.0969C5.84227 11.7749 6.78727 10.6909 8.00127 10.6909C9.21527 10.6909 10.1863 11.7749 10.1653 13.0969C10.1453 14.4189 9.21127 15.4929 8.00527 15.4929ZM15.9813 15.4929C14.7953 15.4929 13.8213 14.4189 13.8213 13.0969C13.8213 11.7749 14.7653 10.6909 15.9813 10.6909C17.1983 10.6909 18.1613 11.7749 18.1403 13.0969C18.1203 14.4189 17.1883 15.4929 15.9813 15.4929Z" fill="#9E9E9E"/>
</g>
</svg>
