<svg width="24" height="24" viewBox="0 0 24 24" fill="none" xmlns="http://www.w3.org/2000/svg">
<mask id="mask0_2001_160" style="mask-type:luminance" maskUnits="userSpaceOnUse" x="0" y="0" width="24" height="24">
<path d="M0 0H24V24H0V0Z" fill="white"/>
</mask>
<g mask="url(#mask0_2001_160)">
<path fill-rule="evenodd" clip-rule="evenodd" d="M21.3359 24H2.67091C2.32067 24 1.97386 23.931 1.65029 23.797C1.32671 23.663 1.03271 23.4665 0.785052 23.2189C0.537399 22.9712 0.340949 22.6772 0.20692 22.3536C0.0728902 22.03 0.00390625 21.6832 0.00390625 21.333V2.667C0.0039062 1.95984 0.284756 1.28163 0.784699 0.7815C1.28464 0.281369 1.96275 0.000265152 2.66991 0L21.3359 0C21.6861 0 22.0329 0.068984 22.3565 0.203013C22.6801 0.337043 22.9741 0.533492 23.2218 0.781146C23.4694 1.0288 23.6659 1.32281 23.7999 1.64638C23.9339 1.96996 24.0029 2.31676 24.0029 2.667V21.333C24.0029 21.6832 23.9339 22.03 23.7999 22.3536C23.6659 22.6772 23.4694 22.9712 23.2218 23.2189C22.9741 23.4665 22.6801 23.663 22.3565 23.797C22.0329 23.931 21.6861 24 21.3359 24ZM17.1059 20.667H20.6679V13.35C20.6679 10.255 18.9129 8.758 16.4619 8.758C14.0099 8.758 12.9779 10.668 12.9779 10.668V9.11H9.54591V20.666H12.9779V14.6C12.9779 12.974 13.7259 12.007 15.1579 12.007C16.4749 12.007 17.1069 12.937 17.1069 14.6V20.666L17.1059 20.667ZM3.33591 5.466C3.33591 6.643 4.28291 7.598 5.45191 7.598C6.62191 7.598 7.56791 6.643 7.56791 5.466C7.56909 5.1869 7.51526 4.91031 7.40948 4.65203C7.30371 4.39375 7.14807 4.15885 6.95146 3.96076C6.75486 3.76266 6.52113 3.60526 6.26366 3.49755C6.00618 3.38983 5.73 3.33392 5.45091 3.333C4.28191 3.333 3.33591 4.288 3.33591 5.466ZM7.25891 20.666H3.67891V9.112H7.25891V20.668V20.666Z" fill="#9E9E9E"/>
</g>
</svg>
