<svg id="Layer_1" enable-background="new 0 0 140 140" height="140" viewBox="0 0 140 140" width="140" xmlns="http://www.w3.org/2000/svg"><g><g><path d="m104.805 82.516c-.071-.139-.141-.274-.222-.408-2.985-3.812-5.979-7.078-5.979-14.418v-24.477c0-10.332.821-19.853-6.788-26.916-6.249-5.702-16.041-7.885-23.653-7.885h-3.265c-13.855.805-28.528 6.792-31.806 23.924-.539 2.182 1.099 2.994 2.182 3.263l15.226 1.904c1.629-.274 2.448-1.638 2.718-2.985 1.353-5.983 6.249-8.977 11.681-9.526h1.092c3.267 0 6.8 1.361 8.699 4.086 2.172 3.259 1.903 7.616 1.903 11.428v2.172c-3.534.268-7.617.536-11.694 1.072-6.25.827-12.5 1.913-17.66 4.362-10.059 4.08-16.856 12.782-16.856 25.556 0 3.287.452 6.224 1.253 8.849 3.109 10.186 11.744 15.359 22.131 15.359 4.346 0 7.877-.553 11.133-1.356 5.176-1.637 9.514-4.628 14.679-10.071 2.99 4.079 3.815 5.992 8.974 10.341 1.363.534 2.722.534 3.802-.27 3.267-2.725 8.98-7.622 11.966-10.336 1.222-.984 1.119-2.407.484-3.668zm-39.908-26.254c3.531-.812 7.619-1.085 11.694-1.085v3.266c0 6.253.269 11.146-2.99 16.587-1.904 3.803-5.173 6.253-8.704 7.078-.536 0-1.355.27-2.175.27-5.973 0-9.506-4.624-9.506-11.421.001-8.709 5.16-12.781 11.681-14.695z" fill="#33363a"/><path d="m104.805 82.516c-.071-.139-.141-.274-.222-.408-2.985-3.812-5.979-7.078-5.979-14.418v-24.477c0-10.332.821-19.853-6.788-26.916-6.249-5.702-16.041-7.885-23.653-7.885h-3.265c-13.855.805-28.528 6.792-31.806 23.924-.539 2.182 1.099 2.994 2.182 3.263l15.226 1.904c1.629-.274 2.448-1.638 2.718-2.985 1.353-5.983 6.249-8.977 11.681-9.526h1.092c3.267 0 6.8 1.361 8.699 4.086 2.172 3.259 1.903 7.616 1.903 11.428v2.172c-3.534.268-7.617.536-11.694 1.072-6.25.827-12.5 1.913-17.66 4.362-10.059 4.08-16.856 12.782-16.856 25.556 0 3.287.452 6.224 1.253 8.849 3.109 10.186 11.744 15.359 22.131 15.359 4.346 0 7.877-.553 11.133-1.356 5.176-1.637 9.514-4.628 14.679-10.071 2.99 4.079 3.815 5.992 8.974 10.341 1.363.534 2.722.534 3.802-.27 3.267-2.725 8.98-7.622 11.966-10.336 1.222-.984 1.119-2.407.484-3.668zm-39.908-26.254c3.531-.812 7.619-1.085 11.694-1.085v3.266c0 6.253.269 11.146-2.99 16.587-1.904 3.803-5.173 6.253-8.704 7.078-.536 0-1.355.27-2.175.27-5.973 0-9.506-4.624-9.506-11.421.001-8.709 5.16-12.781 11.681-14.695z" style="fill:none;stroke:#33363a;stroke-width:3;stroke-linecap:round;stroke-linejoin:round;stroke-miterlimit:10"/><path d="m67.851 119.069c-.469.015-.95.015-1.406.015-12.39.008-23.38-3.522-33.863-8.378h-15.036v-7.772c-1.473-.814-2.944-1.632-4.417-2.45-.579-.303-1.181-.463-1.762-.463-.744 0-1.513.281-2.069.803-.561.529-.893 1.291-.885 2.067-.008 1.005.536 1.932 1.299 2.534 15.603 13.561 32.713 26.15 55.721 26.163.445 0 .904-.013 1.361-.021 14.635-.327 31.182-5.275 44.032-13.349l.078-.049c1.681-1.007 3.362-2.153 4.946-3.421.987-.73 1.666-1.875 1.666-3.063-.006-.349-.077-.673-.172-.979h-10.644c-12.885 5.093-26.357 8.093-38.849 8.363z" fill="#fa9826"/><path d="m117.345 110.706h-10.644c-12.886 5.094-29.192 14.381-41.688 14.649-.47.016-.947.016-1.406.016-12.39.007-20.543-2.11-31.026-6.968l-12.584-6.444c-2.305-.851-4.612-2.042-6.835-3.582 14.69 12.376 30.943 23.2 52.271 23.211.445 0 .904-.013 1.361-.021 14.635-.327 31.182-5.275 44.032-13.349l.078-.049c1.681-1.007 3.362-2.153 4.946-3.421.987-.73 1.666-1.875 1.666-3.063-.005-.349-.077-.673-.171-.979z" fill="#ea7b0c"/><path d="m118.603 103.809c1.103-.008 2.093.072 2.776.215.338.074.593.162.727.233.056.015.091.036.112.052.028.094.072.34.066.682.014 1.303-.535 3.724-1.3 6.086-.736 2.36-1.638 4.73-2.229 6.305-.146.359-.239.759-.239 1.194-.013.63.246 1.398.8 1.905.535.506 1.228.709 1.807.709h.031c.87-.006 1.609-.354 2.244-.855 6.01-5.405 8.106-14.041 8.189-18.903l-.011-.774v-.008c-.061-1.281-.329-2.261-.863-3.07l-.058-.081-.063-.079c-.546-.596-1.066-.819-1.632-1.066-1.688-.651-4.143-.999-7.097-1.007-1.195 0-2.464.075-3.766.224v8.249c.168-.004.343-.011.506-.011z" fill="#ea7b0c"/><g fill="#fa9826"><path d="m113.751 108.149c-.613-.008-1.246.139-1.832.412-.66.26-1.333.564-1.97.833l-.937.394-1.214.484v.014c-.362.148-.73.277-1.098.42h10.644c-.482-1.554-1.98-2.557-3.593-2.557z"/><path d="m32.581 110.706c-5.096-2.361-10.074-5.033-15.035-7.772v7.772z"/><path d="m115.04 95.903-2.367.79-.042.022-1.344.435v.058c-1.568.652-2.997 1.464-4.32 2.427-.827.616-1.511 1.436-1.543 2.69-.022.68.322 1.463.896 1.926.572.465 1.24.623 1.825.623.14 0 .271-.005.386-.029l.117-.008.084-.015c1.16-.244 2.846-.411 4.824-.688 1.519-.17 3.108-.29 4.542-.316v-8.249c-.999.114-2.025.269-3.05.494z"/></g><g style="fill:none;stroke:#33363a;stroke-width:3;stroke-linecap:round;stroke-linejoin:round;stroke-miterlimit:10"><path d="m131.576 100.657v-.008c-.061-1.281-.329-2.261-.863-3.07l-.058-.081-.063-.079c-.546-.596-1.066-.819-1.632-1.066-1.688-.651-4.143-.999-7.097-1.007-1.195 0-2.464.075-3.766.224-.999.114-2.025.269-3.05.494l-.008-.16-2.367.79-.042.022-1.344.435v.058c-1.568.652-2.997 1.464-4.32 2.427-.827.616-1.511 1.436-1.543 2.69-.022.68.322 1.463.896 1.926.572.465 1.24.623 1.825.623.14 0 .271-.005.386-.029l.117-.008.084-.015c1.16-.244 2.846-.411 4.824-.688 1.519-.17 3.108-.29 4.542-.316.167-.002.343-.009.505-.009 1.103-.008 2.093.072 2.776.215.338.074.593.162.727.233.056.015.091.036.112.052.028.094.072.34.066.682.014 1.303-.535 3.724-1.3 6.086-.736 2.36-1.638 4.73-2.229 6.305-.146.359-.239.759-.239 1.194-.013.63.246 1.398.8 1.905.535.506 1.228.709 1.807.709h.031c.87-.006 1.609-.354 2.244-.855 6.01-5.405 8.106-14.041 8.189-18.903z"/><path d="m113.751 108.149c-.613-.008-1.246.139-1.832.412-.66.26-1.333.564-1.97.833l-.937.394-1.214.484v.014c-.362.148-.73.277-1.098.42-12.886 5.094-26.358 8.094-38.851 8.363-.469.015-.95.015-1.406.015-12.39.008-23.38-3.522-33.863-8.378-5.096-2.361-10.074-5.033-15.035-7.772-1.473-.814-2.944-1.632-4.417-2.45-.579-.303-1.181-.463-1.762-.463-.744 0-1.513.281-2.069.803-.561.529-.893 1.291-.885 2.067-.008 1.005.536 1.932 1.299 2.534 15.603 13.561 32.713 26.15 55.721 26.163.445 0 .904-.013 1.361-.021 14.635-.327 31.182-5.275 44.032-13.349l.078-.049c1.681-1.007 3.362-2.153 4.946-3.421.987-.73 1.666-1.875 1.666-3.063-.006-.349-.077-.673-.172-.979-.481-1.554-1.979-2.557-3.592-2.557z"/></g></g></g></svg>