<svg width="319" height="120" viewBox="0 0 319 120" fill="none" xmlns="http://www.w3.org/2000/svg">
<rect width="319" height="120" rx="12" fill="url(#paint0_linear_1_2308)"/>
<path d="M83.5742 80H76.3379V70.2031H50.8994V80H43.6631V60.0444C43.6631 57.1313 44.1641 54.4502 45.166 52.001C46.168 49.5518 47.5596 47.4458 49.3408 45.6831C51.1221 43.9204 53.228 42.5474 55.6587 41.564C58.0894 40.5806 60.7427 40.0889 63.6187 40.0889H79.9282C80.4292 40.0889 80.9023 40.1816 81.3477 40.3672C81.793 40.5527 82.1826 40.8125 82.5166 41.1465C82.8506 41.4805 83.1104 41.8701 83.2959 42.3154C83.4814 42.7607 83.5742 43.2339 83.5742 43.7349V80ZM50.8994 62.9668H76.3379V47.3252H63.6187C63.396 47.3252 62.9229 47.3623 62.1992 47.4365C61.4941 47.4922 60.6685 47.6499 59.7222 47.9097C58.7944 48.1694 57.811 48.5684 56.772 49.1064C55.7329 49.6445 54.7773 50.3867 53.9053 51.333C53.0332 52.2793 52.3096 53.4668 51.7344 54.8955C51.1777 56.3057 50.8994 58.022 50.8994 60.0444V62.9668ZM126.547 80H116.11L101.526 65.917C100.709 65.1748 100.329 64.2471 100.385 63.1338C100.422 62.6143 100.552 62.1318 100.774 61.6865C101.016 61.2227 101.34 60.833 101.749 60.5176L114.969 49.8579H126.547L109.514 63.5791L126.547 80ZM98.5479 80H91.3115V37.1943H98.5479V80ZM159.695 69.8413C159.695 71.0845 159.537 72.207 159.222 73.209C158.906 74.1924 158.489 75.0645 157.969 75.8252C157.45 76.5674 156.847 77.2075 156.16 77.7456C155.474 78.2651 154.75 78.6919 153.989 79.0259C153.247 79.3599 152.486 79.6104 151.707 79.7773C150.946 79.9258 150.223 80 149.536 80H129.942V72.7637H149.48C150.464 72.7637 151.206 72.5132 151.707 72.0122C152.208 71.5112 152.458 70.7876 152.458 69.8413C152.366 67.9116 151.392 66.9468 149.536 66.9468H138.32C136.724 66.9468 135.37 66.6685 134.256 66.1118C133.143 65.5552 132.234 64.8594 131.529 64.0244C130.842 63.1895 130.341 62.2896 130.026 61.3247C129.729 60.3599 129.581 59.46 129.581 58.625C129.581 57.0107 129.868 55.6562 130.443 54.5615C131.019 53.4482 131.742 52.5483 132.614 51.8618C133.486 51.1753 134.433 50.6836 135.453 50.3867C136.474 50.0713 137.429 49.9136 138.32 49.9136H156.104V57.1499H138.375C138.004 57.1499 137.708 57.1963 137.485 57.2891C137.281 57.3633 137.123 57.4746 137.012 57.623C136.919 57.7529 136.863 57.9014 136.845 58.0684C136.826 58.2168 136.817 58.3652 136.817 58.5137C136.835 58.8105 136.891 59.0425 136.984 59.2095C137.077 59.3765 137.188 59.4971 137.318 59.5713C137.466 59.6455 137.624 59.6919 137.791 59.7104C137.977 59.7104 138.153 59.7104 138.32 59.7104H149.536C151.392 59.7104 152.969 60.0444 154.268 60.7124C155.566 61.3804 156.615 62.2246 157.413 63.2451C158.21 64.2471 158.786 65.3418 159.138 66.5293C159.509 67.7168 159.695 68.8208 159.695 69.8413ZM198.242 80H191.006V60.0444C191.006 59.0981 190.765 58.3838 190.282 57.9014C189.8 57.4004 189.076 57.1499 188.111 57.1499H175.058V49.9136H188.111C188.798 49.9136 189.521 49.9971 190.282 50.1641C191.043 50.3125 191.794 50.5537 192.537 50.8877C193.297 51.2217 194.021 51.6577 194.708 52.1958C195.394 52.7153 195.997 53.3555 196.517 54.1162C197.036 54.8584 197.454 55.7212 197.769 56.7046C198.084 57.688 198.242 58.8013 198.242 60.0444V80ZM172.136 80H164.899V37.1943H172.136V80ZM235.927 70.0361C235.927 71.0381 235.75 72.1235 235.398 73.2925C235.045 74.4429 234.47 75.519 233.672 76.521C232.893 77.5044 231.863 78.3301 230.583 78.998C229.321 79.666 227.781 80 225.963 80H212.91C211.908 80 210.822 79.8237 209.653 79.4712C208.503 79.1187 207.427 78.5527 206.425 77.7734C205.441 76.9756 204.616 75.9458 203.948 74.6841C203.28 73.4038 202.946 71.8545 202.946 70.0361C202.946 69.0342 203.122 67.9487 203.475 66.7798C203.827 65.6108 204.393 64.5347 205.172 63.5513C205.97 62.5493 207 61.7144 208.262 61.0464C209.542 60.3784 211.091 60.0444 212.91 60.0444H225.963V66.9468H212.91C211.926 66.9468 211.166 67.2529 210.627 67.8652C210.089 68.459 209.82 69.2012 209.82 70.0918C209.82 71.0381 210.126 71.7803 210.739 72.3184C211.37 72.8379 212.112 73.0977 212.965 73.0977H225.963C226.946 73.0977 227.707 72.8008 228.245 72.207C228.783 71.6133 229.052 70.8711 229.052 69.9805V59.8774C229.052 58.9312 228.755 58.1797 228.162 57.623C227.586 57.0664 226.854 56.7881 225.963 56.7881H210.071V49.9136H225.963C226.965 49.9136 228.041 50.0898 229.191 50.4424C230.36 50.7949 231.437 51.3701 232.42 52.168C233.422 52.9473 234.257 53.9771 234.925 55.2573C235.593 56.519 235.927 58.0591 235.927 59.8774V70.0361ZM275.281 82.8945C275.281 84.1377 275.124 85.251 274.808 86.2344C274.493 87.2363 274.075 88.1084 273.556 88.8506C273.036 89.6113 272.433 90.2515 271.747 90.771C271.06 91.3091 270.336 91.7451 269.576 92.0791C268.833 92.4131 268.082 92.6543 267.321 92.8027C266.561 92.9697 265.837 93.0532 265.15 93.0532H252.097V85.8169H265.15C266.115 85.8169 266.839 85.5664 267.321 85.0654C267.804 84.5645 268.045 83.8408 268.045 82.8945V49.9136H275.281V82.8945ZM265.15 80H252.097C251.058 80 249.945 79.8237 248.757 79.4712C247.588 79.1187 246.494 78.5435 245.473 77.7456C244.453 76.9292 243.608 75.8809 242.94 74.6006C242.272 73.3018 241.938 71.7153 241.938 69.8413V49.9136H249.175V69.8413C249.175 70.7876 249.425 71.5112 249.926 72.0122C250.427 72.5132 251.169 72.7637 252.153 72.7637H265.15V80Z" fill="white"/>
<defs>
<linearGradient id="paint0_linear_1_2308" x1="21.3689" y1="90" x2="131.141" y2="-78.4773" gradientUnits="userSpaceOnUse">
<stop stop-color="#121212"/>
<stop offset="1" stop-color="#228A99"/>
</linearGradient>
</defs>
</svg>
