<svg width="233" height="57" viewBox="0 0 233 57" fill="none" xmlns="http://www.w3.org/2000/svg">
<path d="M40.5742 43H33.3379V33.2031H7.89941V43H0.663086V23.0444C0.663086 20.1313 1.16406 17.4502 2.16602 15.001C3.16797 12.5518 4.55957 10.4458 6.34082 8.68311C8.12207 6.92041 10.228 5.54736 12.6587 4.56396C15.0894 3.58057 17.7427 3.08887 20.6187 3.08887H36.9282C37.4292 3.08887 37.9023 3.18164 38.3477 3.36719C38.793 3.55273 39.1826 3.8125 39.5166 4.14648C39.8506 4.48047 40.1104 4.87012 40.2959 5.31543C40.4814 5.76074 40.5742 6.23389 40.5742 6.73486V43ZM7.89941 25.9668H33.3379V10.3252H20.6187C20.396 10.3252 19.9229 10.3623 19.1992 10.4365C18.4941 10.4922 17.6685 10.6499 16.7222 10.9097C15.7944 11.1694 14.811 11.5684 13.772 12.1064C12.7329 12.6445 11.7773 13.3867 10.9053 14.333C10.0332 15.2793 9.30957 16.4668 8.73438 17.8955C8.17773 19.3057 7.89941 21.022 7.89941 23.0444V25.9668ZM83.5469 43H73.1099L58.5259 28.917C57.7095 28.1748 57.3291 27.2471 57.3848 26.1338C57.4219 25.6143 57.5518 25.1318 57.7744 24.6865C58.0156 24.2227 58.3403 23.833 58.7485 23.5176L71.9688 12.8579H83.5469L66.5137 26.5791L83.5469 43ZM55.5479 43H48.3115V0.194336H55.5479V43ZM116.695 32.8413C116.695 34.0845 116.537 35.207 116.222 36.209C115.906 37.1924 115.489 38.0645 114.969 38.8252C114.45 39.5674 113.847 40.2075 113.16 40.7456C112.474 41.2651 111.75 41.6919 110.989 42.0259C110.247 42.3599 109.486 42.6104 108.707 42.7773C107.946 42.9258 107.223 43 106.536 43H86.9424V35.7637H106.48C107.464 35.7637 108.206 35.5132 108.707 35.0122C109.208 34.5112 109.458 33.7876 109.458 32.8413C109.366 30.9116 108.392 29.9468 106.536 29.9468H95.3198C93.7241 29.9468 92.3696 29.6685 91.2563 29.1118C90.1431 28.5552 89.2339 27.8594 88.5288 27.0244C87.8423 26.1895 87.3413 25.2896 87.0259 24.3247C86.729 23.3599 86.5806 22.46 86.5806 21.625C86.5806 20.0107 86.8682 18.6562 87.4434 17.5615C88.0186 16.4482 88.7422 15.5483 89.6143 14.8618C90.4863 14.1753 91.4326 13.6836 92.4531 13.3867C93.4736 13.0713 94.4292 12.9136 95.3198 12.9136H113.104V20.1499H95.3755C95.0044 20.1499 94.7075 20.1963 94.4849 20.2891C94.2808 20.3633 94.123 20.4746 94.0117 20.623C93.9189 20.7529 93.8633 20.9014 93.8447 21.0684C93.8262 21.2168 93.8169 21.3652 93.8169 21.5137C93.8354 21.8105 93.8911 22.0425 93.9839 22.2095C94.0767 22.3765 94.188 22.4971 94.3179 22.5713C94.4663 22.6455 94.624 22.6919 94.791 22.7104C94.9766 22.7104 95.1528 22.7104 95.3198 22.7104H106.536C108.392 22.7104 109.969 23.0444 111.268 23.7124C112.566 24.3804 113.615 25.2246 114.413 26.2451C115.21 27.2471 115.786 28.3418 116.138 29.5293C116.509 30.7168 116.695 31.8208 116.695 32.8413ZM155.242 43H148.006V23.0444C148.006 22.0981 147.765 21.3838 147.282 20.9014C146.8 20.4004 146.076 20.1499 145.111 20.1499H132.058V12.9136H145.111C145.798 12.9136 146.521 12.9971 147.282 13.1641C148.043 13.3125 148.794 13.5537 149.537 13.8877C150.297 14.2217 151.021 14.6577 151.708 15.1958C152.394 15.7153 152.997 16.3555 153.517 17.1162C154.036 17.8584 154.454 18.7212 154.769 19.7046C155.084 20.688 155.242 21.8013 155.242 23.0444V43ZM129.136 43H121.899V0.194336H129.136V43ZM192.927 33.0361C192.927 34.0381 192.75 35.1235 192.398 36.2925C192.045 37.4429 191.47 38.519 190.672 39.521C189.893 40.5044 188.863 41.3301 187.583 41.998C186.321 42.666 184.781 43 182.963 43H169.91C168.908 43 167.822 42.8237 166.653 42.4712C165.503 42.1187 164.427 41.5527 163.425 40.7734C162.441 39.9756 161.616 38.9458 160.948 37.6841C160.28 36.4038 159.946 34.8545 159.946 33.0361C159.946 32.0342 160.122 30.9487 160.475 29.7798C160.827 28.6108 161.393 27.5347 162.172 26.5513C162.97 25.5493 164 24.7144 165.262 24.0464C166.542 23.3784 168.091 23.0444 169.91 23.0444H182.963V29.9468H169.91C168.926 29.9468 168.166 30.2529 167.627 30.8652C167.089 31.459 166.82 32.2012 166.82 33.0918C166.82 34.0381 167.126 34.7803 167.739 35.3184C168.37 35.8379 169.112 36.0977 169.965 36.0977H182.963C183.946 36.0977 184.707 35.8008 185.245 35.207C185.783 34.6133 186.052 33.8711 186.052 32.9805V22.8774C186.052 21.9312 185.755 21.1797 185.162 20.623C184.586 20.0664 183.854 19.7881 182.963 19.7881H167.071V12.9136H182.963C183.965 12.9136 185.041 13.0898 186.191 13.4424C187.36 13.7949 188.437 14.3701 189.42 15.168C190.422 15.9473 191.257 16.9771 191.925 18.2573C192.593 19.519 192.927 21.0591 192.927 22.8774V33.0361ZM232.281 45.8945C232.281 47.1377 232.124 48.251 231.808 49.2344C231.493 50.2363 231.075 51.1084 230.556 51.8506C230.036 52.6113 229.433 53.2515 228.747 53.771C228.06 54.3091 227.336 54.7451 226.576 55.0791C225.833 55.4131 225.082 55.6543 224.321 55.8027C223.561 55.9697 222.837 56.0532 222.15 56.0532H209.097V48.8169H222.15C223.115 48.8169 223.839 48.5664 224.321 48.0654C224.804 47.5645 225.045 46.8408 225.045 45.8945V12.9136H232.281V45.8945ZM222.15 43H209.097C208.058 43 206.945 42.8237 205.757 42.4712C204.588 42.1187 203.494 41.5435 202.473 40.7456C201.453 39.9292 200.608 38.8809 199.94 37.6006C199.272 36.3018 198.938 34.7153 198.938 32.8413V12.9136H206.175V32.8413C206.175 33.7876 206.425 34.5112 206.926 35.0122C207.427 35.5132 208.169 35.7637 209.153 35.7637H222.15V43Z" fill="url(#paint0_linear_2001_939)"/>
<defs>
<linearGradient id="paint0_linear_2001_939" x1="13.01" y1="33" x2="34.4029" y2="-40.7985" gradientUnits="userSpaceOnUse">
<stop stop-color="#121212"/>
<stop offset="1" stop-color="#228A99"/>
</linearGradient>
</defs>
</svg>
